<svg data-v-423bf9ae="" xmlns="http://www.w3.org/2000/svg" viewBox="0 0 365.4237236995344 200" class="iconAboveSlogan"><!----><!----><!----><g data-v-423bf9ae="" id="60753667-ad36-4099-843b-ca2d99730d81" fill="white" transform="matrix(4.237287998199463,0,0,4.237287998199463,-9.291052265325561e-7,90.03390502929688)"><path d="M5.71 4.45L5.71 7.57L5.71 7.57Q6.32 6.70 6.83 6.02L6.83 6.02L6.83 6.02Q7.33 5.35 7.75 4.84L7.75 4.84L7.75 4.84Q8.18 4.34 8.54 4.00L8.54 4.00L8.54 4.00Q8.91 3.66 9.25 3.45L9.25 3.45L9.25 3.45Q9.60 3.24 9.94 3.15L9.94 3.15L9.94 3.15Q10.28 3.06 10.66 3.06L10.66 3.06L10.66 3.06Q11.55 3.06 11.55 3.64L11.55 3.64L11.55 3.64Q11.55 3.71 11.54 3.81L11.54 3.81L11.54 3.81Q11.53 3.92 11.49 4.01L11.49 4.01L11.49 4.01Q11.45 4.11 11.38 4.18L11.38 4.18L11.38 4.18Q11.31 4.25 11.21 4.25L11.21 4.25L11.21 4.25Q11.14 4.25 11.04 4.17L11.04 4.17L11.04 4.17Q10.94 4.09 10.81 4.00L10.81 4.00L10.81 4.00Q10.68 3.91 10.51 3.83L10.51 3.83L10.51 3.83Q10.34 3.75 10.12 3.75L10.12 3.75L10.12 3.75Q9.89 3.75 9.59 3.94L9.59 3.94L9.59 3.94Q9.30 4.14 8.95 4.46L8.95 4.46L8.95 4.46Q8.61 4.79 8.23 5.23L8.23 5.23L8.23 5.23Q7.86 5.66 7.48 6.15L7.48 6.15L7.48 6.15Q8.50 8.48 9.29 10.20L9.29 10.20L9.29 10.20Q10.07 11.92 10.72 13.04L10.72 13.04L10.72 13.04Q11.36 14.16 11.91 14.71L11.91 14.71L11.91 14.71Q12.46 15.26 13.01 15.26L13.01 15.26L13.01 15.26Q13.10 15.26 13.20 15.23L13.20 15.23L13.20 15.23Q13.30 15.20 13.37 15.17L13.37 15.17L13.37 15.17Q13.46 15.13 13.55 15.08L13.55 15.08L13.69 15.35L13.69 15.35Q13.58 15.42 13.37 15.51L13.37 15.51L13.37 15.51Q13.17 15.61 12.90 15.69L12.90 15.69L12.90 15.69Q12.62 15.78 12.28 15.84L12.28 15.84L12.28 15.84Q11.95 15.90 11.57 15.90L11.57 15.90L11.57 15.90Q11.04 15.90 10.59 15.74L10.59 15.74L10.59 15.74Q10.14 15.57 9.71 15.21L9.71 15.21L9.71 15.21Q9.28 14.84 8.87 14.25L8.87 14.25L8.87 14.25Q8.46 13.66 8.01 12.80L8.01 12.80L8.01 12.80Q7.56 11.95 7.06 10.81L7.06 10.81L7.06 10.81Q6.56 9.68 5.97 8.22L5.97 8.22L5.71 8.61L5.71 12.82L5.71 12.82Q5.71 13.35 5.44 13.59L5.44 13.59L5.44 13.59Q5.16 13.83 4.59 13.83L4.59 13.83L4.59 13.83Q4.02 13.83 3.75 13.59L3.75 13.59L3.75 13.59Q3.47 13.35 3.47 12.82L3.47 12.82L3.47 4.59L3.47 4.59Q3.47 4.44 3.44 4.35L3.44 4.35L3.44 4.35Q3.40 4.27 3.34 4.21L3.34 4.21L3.34 4.21Q3.28 4.16 3.20 4.15L3.20 4.15L3.20 4.15Q3.11 4.13 3.01 4.13L3.01 4.13L3.01 4.13Q2.86 4.13 2.64 4.18L2.64 4.18L2.64 4.18Q2.41 4.22 2.17 4.32L2.17 4.32L2.17 4.32Q1.92 4.42 1.67 4.56L1.67 4.56L1.67 4.56Q1.42 4.70 1.23 4.87L1.23 4.87L1.23 4.87Q1.03 5.05 0.91 5.27L0.91 5.27L0.91 5.27Q0.79 5.49 0.79 5.74L0.79 5.74L0.79 5.74Q0.79 5.96 0.84 6.09L0.84 6.09L0.84 6.09Q0.90 6.22 0.98 6.29L0.98 6.29L0.98 6.29Q1.05 6.35 1.13 6.37L1.13 6.37L1.13 6.37Q1.21 6.38 1.24 6.38L1.24 6.38L1.24 6.38Q1.42 6.38 1.52 6.33L1.52 6.33L1.52 6.33Q1.63 6.27 1.72 6.20L1.72 6.20L1.72 6.20Q1.81 6.14 1.89 6.08L1.89 6.08L1.89 6.08Q1.97 6.02 2.07 6.02L2.07 6.02L2.07 6.02Q2.15 6.02 2.25 6.06L2.25 6.06L2.25 6.06Q2.34 6.10 2.42 6.18L2.42 6.18L2.42 6.18Q2.50 6.26 2.55 6.40L2.55 6.40L2.55 6.40Q2.60 6.53 2.60 6.72L2.60 6.72L2.60 6.72Q2.60 6.99 2.50 7.19L2.50 7.19L2.50 7.19Q2.39 7.39 2.23 7.52L2.23 7.52L2.23 7.52Q2.06 7.66 1.84 7.72L1.84 7.72L1.84 7.72Q1.63 7.79 1.42 7.79L1.42 7.79L1.42 7.79Q1.09 7.79 0.82 7.67L0.82 7.67L0.82 7.67Q0.56 7.56 0.38 7.36L0.38 7.36L0.38 7.36Q0.19 7.16 0.10 6.90L0.10 6.90L0.10 6.90Q0 6.63 0 6.33L0 6.33L0 6.33Q0 5.86 0.17 5.47L0.17 5.47L0.17 5.47Q0.34 5.07 0.64 4.76L0.64 4.76L0.64 4.76Q0.94 4.44 1.34 4.21L1.34 4.21L1.34 4.21Q1.74 3.97 2.20 3.81L2.20 3.81L2.20 3.81Q2.67 3.66 3.17 3.58L3.17 3.58L3.17 3.58Q3.68 3.50 4.18 3.50L4.18 3.50L4.18 3.50Q4.74 3.50 5.06 3.61L5.06 3.61L5.06 3.61Q5.37 3.71 5.51 3.86L5.51 3.86L5.51 3.86Q5.66 4.01 5.69 4.18L5.69 4.18L5.69 4.18Q5.71 4.34 5.71 4.45L5.71 4.45ZM16.51 8.99L16.51 8.99L16.51 8.99Q16.30 8.99 16.15 8.92L16.15 8.92L16.15 8.92Q16.01 8.86 15.92 8.75L15.92 8.75L15.92 8.75Q15.83 8.64 15.79 8.51L15.79 8.51L15.79 8.51Q15.75 8.37 15.75 8.23L15.75 8.23L15.75 8.23Q15.75 8.05 15.77 7.88L15.77 7.88L15.77 7.88Q15.80 7.70 15.78 7.57L15.78 7.57L15.78 7.57Q15.76 7.43 15.67 7.35L15.67 7.35L15.67 7.35Q15.59 7.27 15.36 7.27L15.36 7.27L15.36 7.27Q15.12 7.27 14.85 7.40L14.85 7.40L14.85 7.40Q14.59 7.54 14.37 7.83L14.37 7.83L14.37 7.83Q14.15 8.13 14.01 8.59L14.01 8.59L14.01 8.59Q13.86 9.05 13.86 9.70L13.86 9.70L13.86 9.70Q13.86 10.42 14.00 11.01L14.00 11.01L14.00 11.01Q14.13 11.60 14.40 12.02L14.40 12.02L14.40 12.02Q14.66 12.43 15.06 12.66L15.06 12.66L15.06 12.66Q15.46 12.89 15.99 12.89L15.99 12.89L15.99 12.89Q16.23 12.89 16.44 12.84L16.44 12.84L16.44 12.84Q16.66 12.78 16.85 12.69L16.85 12.69L16.85 12.69Q17.04 12.59 17.22 12.47L17.22 12.47L17.22 12.47Q17.39 12.34 17.55 12.20L17.55 12.20L17.73 12.36L17.73 12.36Q17.57 12.57 17.32 12.82L17.32 12.82L17.32 12.82Q17.08 13.08 16.73 13.30L16.73 13.30L16.73 13.30Q16.38 13.52 15.91 13.67L15.91 13.67L15.91 13.67Q15.45 13.82 14.85 13.82L14.85 13.82L14.85 13.82Q14.26 13.82 13.70 13.59L13.70 13.59L13.70 13.59Q13.13 13.36 12.69 12.92L12.69 12.92L12.69 12.92Q12.26 12.48 11.99 11.86L11.99 11.86L11.99 11.86Q11.73 11.23 11.73 10.43L11.73 10.43L11.73 10.43Q11.73 9.81 11.89 9.29L11.89 9.29L11.89 9.29Q12.04 8.76 12.31 8.34L12.31 8.34L12.31 8.34Q12.58 7.92 12.94 7.59L12.94 7.59L12.94 7.59Q13.30 7.27 13.70 7.06L13.70 7.06L13.70 7.06Q14.10 6.84 14.51 6.73L14.51 6.73L14.51 6.73Q14.92 6.62 15.31 6.62L15.31 6.62L15.31 6.62Q15.81 6.62 16.19 6.74L16.19 6.74L16.19 6.74Q16.56 6.86 16.81 7.05L16.81 7.05L16.81 7.05Q17.06 7.24 17.19 7.49L17.19 7.49L17.19 7.49Q17.31 7.74 17.31 8.00L17.31 8.00L17.31 8.00Q17.31 8.20 17.26 8.38L17.26 8.38L17.26 8.38Q17.21 8.57 17.11 8.70L17.11 8.70L17.11 8.70Q17.01 8.83 16.86 8.91L16.86 8.91L16.86 8.91Q16.71 8.99 16.51 8.99ZM24.02 5.64L24.02 5.64L24.02 5.64Q24.02 6.22 23.70 6.71L23.70 6.71L23.70 6.71Q23.37 7.21 22.65 7.70L22.65 7.70L22.65 7.70Q23.00 8.00 23.33 8.32L23.33 8.32L23.33 8.32Q23.67 8.65 23.93 9.02L23.93 9.02L23.93 9.02Q24.19 9.40 24.34 9.84L24.34 9.84L24.34 9.84Q24.50 10.27 24.50 10.79L24.50 10.79L24.50 10.79Q24.50 11.54 24.24 12.11L24.24 12.11L24.24 12.11Q23.97 12.67 23.53 13.05L23.53 13.05L23.53 13.05Q23.08 13.43 22.50 13.63L22.50 13.63L22.50 13.63Q21.92 13.82 21.28 13.83L21.28 13.83L21.28 13.83Q20.46 13.84 19.88 13.61L19.88 13.61L19.88 13.61Q19.30 13.38 18.94 13.01L18.94 13.01L18.94 13.01Q18.58 12.64 18.41 12.17L18.41 12.17L18.41 12.17Q18.25 11.71 18.25 11.25L18.25 11.25L18.25 11.25Q18.25 10.86 18.34 10.50L18.34 10.50L18.34 10.50Q18.43 10.14 18.65 9.79L18.65 9.79L18.65 9.79Q18.86 9.43 19.22 9.09L19.22 9.09L19.22 9.09Q19.57 8.75 20.10 8.40L20.10 8.40L20.10 8.40Q19.81 8.15 19.54 7.88L19.54 7.88L19.54 7.88Q19.28 7.61 19.08 7.31L19.08 7.31L19.08 7.31Q18.87 7.01 18.75 6.66L18.75 6.66L18.75 6.66Q18.63 6.31 18.63 5.89L18.63 5.89L18.63 5.89Q18.63 5.28 18.88 4.83L18.88 4.83L18.88 4.83Q19.13 4.38 19.54 4.08L19.54 4.08L19.54 4.08Q19.95 3.79 20.47 3.64L20.47 3.64L20.47 3.64Q20.99 3.50 21.52 3.50L21.52 3.50L21.52 3.50Q22.02 3.50 22.47 3.64L22.47 3.64L22.47 3.64Q22.92 3.77 23.27 4.04L23.27 4.04L23.27 4.04Q23.61 4.31 23.82 4.71L23.82 4.71L23.82 4.71Q24.02 5.11 24.02 5.64ZM22.36 11.48L22.36 11.48L22.36 11.48Q22.36 11.04 22.21 10.67L22.21 10.67L22.21 10.67Q22.07 10.30 21.82 9.98L21.82 9.98L21.82 9.98Q21.58 9.66 21.27 9.38L21.27 9.38L21.27 9.38Q20.95 9.09 20.62 8.82L20.62 8.82L20.62 8.82Q20.44 9.10 20.32 9.42L20.32 9.42L20.32 9.42Q20.19 9.73 20.11 10.06L20.11 10.06L20.11 10.06Q20.04 10.39 20.01 10.71L20.01 10.71L20.01 10.71Q19.97 11.03 19.97 11.30L19.97 11.30L19.97 11.30Q19.97 11.79 20.07 12.15L20.07 12.15L20.07 12.15Q20.17 12.51 20.34 12.75L20.34 12.75L20.34 12.75Q20.51 13.00 20.74 13.12L20.74 13.12L20.74 13.12Q20.97 13.24 21.23 13.24L21.23 13.24L21.23 13.24Q21.50 13.24 21.71 13.10L21.71 13.10L21.71 13.10Q21.92 12.95 22.07 12.71L22.07 12.71L22.07 12.71Q22.21 12.47 22.29 12.15L22.29 12.15L22.29 12.15Q22.36 11.83 22.36 11.48ZM20.71 5.18L20.71 5.18L20.71 5.18Q20.71 5.49 20.82 5.77L20.82 5.77L20.82 5.77Q20.94 6.04 21.14 6.30L21.14 6.30L21.14 6.30Q21.34 6.56 21.60 6.80L21.60 6.80L21.60 6.80Q21.87 7.04 22.16 7.29L22.16 7.29L22.16 7.29Q22.31 7.03 22.37 6.76L22.37 6.76L22.37 6.76Q22.44 6.50 22.47 6.27L22.47 6.27L22.47 6.27Q22.50 6.03 22.50 5.82L22.50 5.82L22.50 5.82Q22.50 5.62 22.50 5.48L22.50 5.48L22.50 5.48Q22.50 5.23 22.45 4.98L22.45 4.98L22.45 4.98Q22.39 4.73 22.29 4.53L22.29 4.53L22.29 4.53Q22.18 4.33 22.00 4.21L22.00 4.21L22.00 4.21Q21.83 4.09 21.60 4.09L21.60 4.09L21.60 4.09Q21.40 4.09 21.23 4.17L21.23 4.17L21.23 4.17Q21.07 4.26 20.95 4.41L20.95 4.41L20.95 4.41Q20.83 4.56 20.77 4.76L20.77 4.76L20.77 4.76Q20.71 4.96 20.71 5.18ZM25.89 16.50L25.89 7.83L25.89 7.83Q25.89 7.63 25.80 7.48L25.80 7.48L25.80 7.48Q25.70 7.33 25.48 7.33L25.48 7.33L25.48 7.33Q25.37 7.33 25.29 7.38L25.29 7.38L25.29 7.38Q25.20 7.42 25.11 7.49L25.11 7.49L24.96 7.32L24.96 7.32Q25.12 7.19 25.32 7.06L25.32 7.06L25.32 7.06Q25.51 6.94 25.74 6.84L25.74 6.84L25.74 6.84Q25.96 6.75 26.22 6.69L26.22 6.69L26.22 6.69Q26.48 6.62 26.77 6.62L26.77 6.62L26.77 6.62Q27.08 6.62 27.30 6.72L27.30 6.72L27.30 6.72Q27.51 6.82 27.66 6.95L27.66 6.95L27.66 6.95Q27.81 7.08 27.88 7.23L27.88 7.23L27.88 7.23Q27.96 7.38 27.97 7.48L27.97 7.48L27.97 7.48Q28.11 7.29 28.30 7.13L28.30 7.13L28.30 7.13Q28.49 6.97 28.71 6.86L28.71 6.86L28.71 6.86Q28.93 6.75 29.18 6.69L29.18 6.69L29.18 6.69Q29.43 6.62 29.70 6.62L29.70 6.62L29.70 6.62Q30.24 6.62 30.69 6.85L30.69 6.85L30.69 6.85Q31.13 7.08 31.45 7.52L31.45 7.52L31.45 7.52Q31.77 7.96 31.94 8.62L31.94 8.62L31.94 8.62Q32.11 9.28 32.11 10.14L32.11 10.14L32.11 10.14Q32.11 11.14 31.90 11.84L31.90 11.84L31.90 11.84Q31.69 12.54 31.35 12.98L31.35 12.98L31.35 12.98Q31.01 13.43 30.58 13.63L30.58 13.63L30.58 13.63Q30.15 13.83 29.70 13.83L29.70 13.83L29.70 13.83Q29.32 13.83 29.04 13.75L29.04 13.75L29.04 13.75Q28.75 13.68 28.55 13.57L28.55 13.57L28.55 13.57Q28.34 13.46 28.21 13.35L28.21 13.35L28.21 13.35Q28.07 13.23 27.99 13.16L27.99 13.16L27.99 16.50L27.99 16.50Q27.99 16.58 27.96 16.71L27.96 16.71L27.96 16.71Q27.93 16.83 27.83 16.94L27.83 16.94L27.83 16.94Q27.72 17.06 27.51 17.14L27.51 17.14L27.51 17.14Q27.30 17.22 26.94 17.22L26.94 17.22L26.94 17.22Q26.58 17.22 26.37 17.13L26.37 17.13L26.37 17.13Q26.16 17.05 26.05 16.93L26.05 16.93L26.05 16.93Q25.94 16.81 25.92 16.69L25.92 16.69L25.92 16.69Q25.89 16.57 25.89 16.50L25.89 16.50ZM27.99 8.37L27.99 12.18L27.99 12.18Q27.99 12.24 28.03 12.37L28.03 12.37L28.03 12.37Q28.08 12.51 28.18 12.65L28.18 12.65L28.18 12.65Q28.29 12.80 28.45 12.91L28.45 12.91L28.45 12.91Q28.61 13.02 28.84 13.02L28.84 13.02L28.84 13.02Q29.14 13.02 29.35 12.79L29.35 12.79L29.35 12.79Q29.57 12.56 29.70 12.17L29.70 12.17L29.70 12.17Q29.84 11.78 29.90 11.26L29.90 11.26L29.90 11.26Q29.96 10.73 29.96 10.14L29.96 10.14L29.96 10.14Q29.96 9.41 29.88 8.90L29.88 8.90L29.88 8.90Q29.80 8.39 29.65 8.08L29.65 8.08L29.65 8.08Q29.50 7.77 29.30 7.63L29.30 7.63L29.30 7.63Q29.09 7.49 28.83 7.49L28.83 7.49L28.83 7.49Q28.68 7.49 28.53 7.58L28.53 7.58L28.53 7.58Q28.38 7.66 28.26 7.79L28.26 7.79L28.26 7.79Q28.14 7.92 28.06 8.07L28.06 8.07L28.06 8.07Q27.99 8.23 27.99 8.37L27.99 8.37ZM37.20 10.01L37.20 10.01L37.20 10.01Q37.20 9.93 37.20 9.70L37.20 9.70L37.20 9.70Q37.20 9.47 37.19 9.18L37.19 9.18L37.19 9.18Q37.17 8.88 37.14 8.54L37.14 8.54L37.14 8.54Q37.11 8.21 37.03 7.92L37.03 7.92L37.03 7.92Q36.87 7.71 36.66 7.54L36.66 7.54L36.66 7.54Q36.46 7.38 36.15 7.38L36.15 7.38L36.15 7.38Q35.62 7.38 35.37 8.07L35.37 8.07L35.37 8.07Q35.12 8.77 35.12 10.23L35.12 10.23L35.12 10.23Q35.12 10.88 35.17 11.41L35.17 11.41L35.17 11.41Q35.23 11.94 35.35 12.33L35.35 12.33L35.35 12.33Q35.47 12.71 35.66 12.92L35.66 12.92L35.66 12.92Q35.85 13.13 36.11 13.13L36.11 13.13L36.11 13.13Q37.20 13.13 37.20 10.01ZM37.12 7L37.12 7L37.12 7Q36.99 6.32 36.76 5.73L36.76 5.73L36.76 5.73Q36.52 5.13 36.20 4.70L36.20 4.70L36.20 4.70Q35.88 4.27 35.46 4.03L35.46 4.03L35.46 4.03Q35.05 3.78 34.57 3.78L34.57 3.78L34.57 3.78Q34.30 3.78 34.07 3.85L34.07 3.85L34.07 3.85Q33.85 3.92 33.69 4.01L33.69 4.01L33.69 4.01Q33.52 4.10 33.42 4.19L33.42 4.19L33.42 4.19Q33.31 4.27 33.26 4.31L33.26 4.31L33.09 4.07L33.09 4.07Q33.25 3.86 33.49 3.68L33.49 3.68L33.49 3.68Q33.72 3.49 34.00 3.36L34.00 3.36L34.00 3.36Q34.28 3.23 34.59 3.16L34.59 3.16L34.59 3.16Q34.90 3.08 35.21 3.08L35.21 3.08L35.21 3.08Q36.22 3.08 36.99 3.52L36.99 3.52L36.99 3.52Q37.75 3.96 38.27 4.77L38.27 4.77L38.27 4.77Q38.78 5.58 39.04 6.72L39.04 6.72L39.04 6.72Q39.30 7.86 39.30 9.26L39.30 9.26L39.30 9.26Q39.30 10.38 39.07 11.24L39.07 11.24L39.07 11.24Q38.84 12.09 38.42 12.67L38.42 12.67L38.42 12.67Q37.99 13.25 37.39 13.54L37.39 13.54L37.39 13.54Q36.78 13.83 36.03 13.83L36.03 13.83L36.03 13.83Q35.50 13.83 34.96 13.64L34.96 13.64L34.96 13.64Q34.41 13.45 33.97 13.03L33.97 13.03L33.97 13.03Q33.53 12.61 33.25 11.92L33.25 11.92L33.25 11.92Q32.97 11.23 32.97 10.23L32.97 10.23L32.97 10.23Q32.97 9.37 33.21 8.70L33.21 8.70L33.21 8.70Q33.46 8.03 33.87 7.57L33.87 7.57L33.87 7.57Q34.28 7.11 34.82 6.87L34.82 6.87L34.82 6.87Q35.36 6.62 35.96 6.62L35.96 6.62L35.96 6.62Q36.19 6.62 36.37 6.66L36.37 6.66L36.37 6.66Q36.56 6.70 36.70 6.75L36.70 6.75L36.70 6.75Q36.83 6.81 36.93 6.87L36.93 6.87L36.93 6.87Q37.04 6.94 37.12 7ZM42.79 8.07L42.79 8.07L42.79 8.07Q43.05 7.67 43.34 7.35L43.34 7.35L43.34 7.35Q43.46 7.21 43.61 7.08L43.61 7.08L43.61 7.08Q43.75 6.95 43.90 6.85L43.90 6.85L43.90 6.85Q44.06 6.75 44.22 6.69L44.22 6.69L44.22 6.69Q44.39 6.62 44.55 6.62L44.55 6.62L44.55 6.62Q44.90 6.62 45.10 6.83L45.10 6.83L45.10 6.83Q45.29 7.04 45.29 7.42L45.29 7.42L45.29 7.42Q45.29 7.65 45.26 7.86L45.26 7.86L45.26 7.86Q45.22 8.08 45.11 8.39L45.11 8.39L44.92 8.39L44.92 8.39Q44.88 8.18 44.73 8.04L44.73 8.04L44.73 8.04Q44.58 7.90 44.29 7.90L44.29 7.90L44.29 7.90Q44.08 7.90 43.87 7.97L43.87 7.97L43.87 7.97Q43.67 8.05 43.47 8.17L43.47 8.17L43.47 8.17Q43.28 8.29 43.10 8.42L43.10 8.42L43.10 8.42Q42.93 8.56 42.79 8.68L42.79 8.68L42.79 13.12L42.79 13.12Q42.79 13.21 42.76 13.33L42.76 13.33L42.76 13.33Q42.73 13.45 42.63 13.56L42.63 13.56L42.63 13.56Q42.52 13.67 42.31 13.75L42.31 13.75L42.31 13.75Q42.10 13.83 41.74 13.83L41.74 13.83L41.74 13.83Q41.38 13.83 41.17 13.74L41.17 13.74L41.17 13.74Q40.96 13.66 40.85 13.54L40.85 13.54L40.85 13.54Q40.74 13.43 40.71 13.30L40.71 13.30L40.71 13.30Q40.69 13.18 40.69 13.10L40.69 13.10L40.69 7.83L40.69 7.83Q40.69 7.63 40.60 7.48L40.60 7.48L40.60 7.48Q40.50 7.33 40.28 7.33L40.28 7.33L40.28 7.33Q40.17 7.33 40.09 7.38L40.09 7.38L40.09 7.38Q40.00 7.42 39.91 7.49L39.91 7.49L39.76 7.32L39.76 7.32Q39.92 7.19 40.12 7.06L40.12 7.06L40.12 7.06Q40.31 6.94 40.54 6.84L40.54 6.84L40.54 6.84Q40.76 6.75 41.02 6.69L41.02 6.69L41.02 6.69Q41.28 6.62 41.57 6.62L41.57 6.62L41.57 6.62Q41.86 6.62 42.07 6.70L42.07 6.70L42.07 6.70Q42.28 6.78 42.41 6.91L42.41 6.91L42.41 6.91Q42.55 7.03 42.62 7.19L42.62 7.19L42.62 7.19Q42.70 7.35 42.73 7.51L42.73 7.51L42.73 7.51Q42.77 7.67 42.78 7.82L42.78 7.82L42.78 7.82Q42.79 7.96 42.79 8.07ZM54.20 5.78L55.91 11.33L55.91 11.33Q56.06 10.92 56.23 10.46L56.23 10.46L56.23 10.46Q56.39 9.99 56.55 9.50L56.55 9.50L56.55 9.50Q56.70 9.00 56.85 8.49L56.85 8.49L56.85 8.49Q57.00 7.98 57.11 7.49L57.11 7.49L56.45 5.32L56.45 5.32Q56.38 5.09 56.46 4.93L56.46 4.93L56.46 4.93Q56.54 4.76 56.71 4.65L56.71 4.65L56.71 4.65Q56.88 4.53 57.12 4.48L57.12 4.48L57.12 4.48Q57.35 4.42 57.61 4.42L57.61 4.42L57.61 4.42Q57.84 4.42 58.02 4.45L58.02 4.45L58.02 4.45Q58.19 4.47 58.33 4.53L58.33 4.53L58.33 4.53Q58.46 4.59 58.55 4.71L58.55 4.71L58.55 4.71Q58.64 4.82 58.69 5.00L58.69 5.00L60.66 11.31L60.66 11.31Q60.81 10.89 60.98 10.40L60.98 10.40L60.98 10.40Q61.15 9.91 61.32 9.39L61.32 9.39L61.32 9.39Q61.48 8.87 61.63 8.33L61.63 8.33L61.63 8.33Q61.78 7.80 61.90 7.29L61.90 7.29L61.90 7.29Q62.01 6.77 62.07 6.31L62.07 6.31L62.07 6.31Q62.14 5.84 62.14 5.45L62.14 5.45L62.14 5.45Q62.14 5.00 62.08 4.70L62.08 4.70L62.08 4.70Q62.02 4.40 61.94 4.19L61.94 4.19L61.94 4.19Q61.86 3.99 61.80 3.86L61.80 3.86L61.80 3.86Q61.74 3.73 61.74 3.62L61.74 3.62L61.74 3.62Q61.74 3.48 61.81 3.38L61.81 3.38L61.81 3.38Q61.89 3.28 62.00 3.21L62.00 3.21L62.00 3.21Q62.12 3.14 62.25 3.11L62.25 3.11L62.25 3.11Q62.39 3.08 62.51 3.08L62.51 3.08L62.51 3.08Q62.79 3.08 62.98 3.17L62.98 3.17L62.98 3.17Q63.17 3.25 63.25 3.45L63.25 3.45L63.25 3.45Q63.28 3.55 63.30 3.66L63.30 3.66L63.30 3.66Q63.32 3.77 63.33 3.88L63.33 3.88L63.33 3.88Q63.34 3.99 63.34 4.08L63.34 4.08L63.34 4.08Q63.34 4.17 63.34 4.22L63.34 4.22L63.34 4.22Q63.34 4.51 63.25 5.01L63.25 5.01L63.25 5.01Q63.16 5.51 63.00 6.14L63.00 6.14L63.00 6.14Q62.84 6.76 62.63 7.48L62.63 7.48L62.63 7.48Q62.43 8.20 62.20 8.92L62.20 8.92L62.20 8.92Q61.98 9.65 61.76 10.35L61.76 10.35L61.76 10.35Q61.53 11.05 61.33 11.64L61.33 11.64L61.33 11.64Q61.13 12.23 60.97 12.68L60.97 12.68L60.97 12.68Q60.82 13.13 60.74 13.34L60.74 13.34L60.74 13.34Q60.68 13.51 60.59 13.60L60.59 13.60L60.59 13.60Q60.50 13.70 60.38 13.75L60.38 13.75L60.38 13.75Q60.26 13.80 60.12 13.82L60.12 13.82L60.12 13.82Q59.98 13.83 59.83 13.83L59.83 13.83L59.83 13.83Q59.55 13.83 59.38 13.77L59.38 13.77L59.38 13.77Q59.21 13.72 59.10 13.64L59.10 13.64L59.10 13.64Q59.00 13.56 58.95 13.46L58.95 13.46L58.95 13.46Q58.91 13.36 58.88 13.29L58.88 13.29L57.52 8.82L57.52 8.82Q57.29 9.56 57.06 10.28L57.06 10.28L57.06 10.28Q56.83 11.01 56.62 11.61L56.62 11.61L56.62 11.61Q56.41 12.22 56.25 12.68L56.25 12.68L56.25 12.68Q56.08 13.13 55.99 13.34L55.99 13.34L55.99 13.34Q55.92 13.51 55.83 13.60L55.83 13.60L55.83 13.60Q55.73 13.70 55.61 13.75L55.61 13.75L55.61 13.75Q55.49 13.80 55.35 13.82L55.35 13.82L55.35 13.82Q55.21 13.83 55.07 13.83L55.07 13.83L55.07 13.83Q54.80 13.83 54.62 13.77L54.62 13.77L54.62 13.77Q54.45 13.72 54.35 13.64L54.35 13.64L54.35 13.64Q54.24 13.56 54.19 13.46L54.19 13.46L54.19 13.46Q54.14 13.36 54.11 13.29L54.11 13.29L51.68 5.15L51.68 5.15Q51.61 4.92 51.53 4.76L51.53 4.76L51.53 4.76Q51.45 4.60 51.34 4.50L51.34 4.50L51.34 4.50Q51.23 4.40 51.07 4.35L51.07 4.35L51.07 4.35Q50.91 4.30 50.67 4.30L50.67 4.30L50.67 4.30Q50.48 4.30 50.23 4.39L50.23 4.39L50.23 4.39Q49.98 4.48 49.75 4.67L49.75 4.67L49.75 4.67Q49.52 4.85 49.36 5.12L49.36 5.12L49.36 5.12Q49.21 5.39 49.21 5.74L49.21 5.74L49.21 5.74Q49.21 5.96 49.26 6.09L49.26 6.09L49.26 6.09Q49.32 6.22 49.40 6.29L49.40 6.29L49.40 6.29Q49.47 6.35 49.55 6.37L49.55 6.37L49.55 6.37Q49.63 6.38 49.66 6.38L49.66 6.38L49.66 6.38Q49.83 6.38 49.94 6.33L49.94 6.33L49.94 6.33Q50.05 6.27 50.14 6.20L50.14 6.20L50.14 6.20Q50.23 6.14 50.31 6.08L50.31 6.08L50.31 6.08Q50.39 6.02 50.49 6.02L50.49 6.02L50.49 6.02Q50.57 6.02 50.66 6.06L50.66 6.06L50.66 6.06Q50.76 6.10 50.84 6.18L50.84 6.18L50.84 6.18Q50.91 6.26 50.97 6.40L50.97 6.40L50.97 6.40Q51.02 6.53 51.02 6.72L51.02 6.72L51.02 6.72Q51.02 6.99 50.92 7.19L50.92 7.19L50.92 7.19Q50.81 7.39 50.64 7.52L50.64 7.52L50.64 7.52Q50.48 7.66 50.26 7.72L50.26 7.72L50.26 7.72Q50.05 7.79 49.83 7.79L49.83 7.79L49.83 7.79Q49.51 7.79 49.25 7.67L49.25 7.67L49.25 7.67Q48.99 7.55 48.82 7.36L48.82 7.36L48.82 7.36Q48.64 7.16 48.55 6.89L48.55 6.89L48.55 6.89Q48.46 6.63 48.46 6.33L48.46 6.33L48.46 6.33Q48.46 5.62 48.73 5.09L48.73 5.09L48.73 5.09Q49.01 4.56 49.46 4.20L49.46 4.20L49.46 4.20Q49.91 3.85 50.48 3.67L50.48 3.67L50.48 3.67Q51.06 3.50 51.67 3.50L51.67 3.50L51.67 3.50Q52.35 3.50 52.79 3.71L52.79 3.71L52.79 3.71Q53.22 3.92 53.49 4.25L53.49 4.25L53.49 4.25Q53.76 4.57 53.92 4.98L53.92 4.98L53.92 4.98Q54.08 5.39 54.20 5.78L54.20 5.78ZM63.49 10.22L63.49 10.22L63.49 10.22Q63.49 9.32 63.75 8.65L63.75 8.65L63.75 8.65Q64.00 7.98 64.44 7.53L64.44 7.53L64.44 7.53Q64.87 7.08 65.45 6.85L65.45 6.85L65.45 6.85Q66.02 6.62 66.65 6.62L66.65 6.62L66.65 6.62Q67.28 6.62 67.85 6.83L67.85 6.83L67.85 6.83Q68.43 7.04 68.86 7.47L68.86 7.47L68.86 7.47Q69.30 7.90 69.56 8.56L69.56 8.56L69.56 8.56Q69.82 9.22 69.82 10.12L69.82 10.12L69.82 10.12Q69.82 11.02 69.56 11.71L69.56 11.71L69.56 11.71Q69.30 12.40 68.86 12.87L68.86 12.87L68.86 12.87Q68.43 13.34 67.85 13.59L67.85 13.59L67.85 13.59Q67.28 13.83 66.65 13.83L66.65 13.83L66.65 13.83Q66.02 13.83 65.45 13.60L65.45 13.60L65.45 13.60Q64.87 13.37 64.44 12.92L64.44 12.92L64.44 12.92Q64.00 12.47 63.75 11.79L63.75 11.79L63.75 11.79Q63.49 11.12 63.49 10.22ZM67.69 10.15L67.69 10.15L67.69 10.15Q67.69 9.60 67.65 9.10L67.65 9.10L67.65 9.10Q67.61 8.59 67.50 8.19L67.50 8.19L67.50 8.19Q67.40 7.79 67.19 7.56L67.19 7.56L67.19 7.56Q66.99 7.32 66.65 7.32L66.65 7.32L66.65 7.32Q66.32 7.32 66.11 7.57L66.11 7.57L66.11 7.57Q65.91 7.82 65.80 8.23L65.80 8.23L65.80 8.23Q65.69 8.63 65.65 9.15L65.65 9.15L65.65 9.15Q65.62 9.67 65.62 10.22L65.62 10.22L65.62 10.22Q65.62 10.77 65.65 11.29L65.65 11.29L65.65 11.29Q65.69 11.81 65.80 12.22L65.80 12.22L65.80 12.22Q65.91 12.63 66.11 12.88L66.11 12.88L66.11 12.88Q66.32 13.13 66.65 13.13L66.65 13.13L66.65 13.13Q66.99 13.13 67.19 12.87L67.19 12.87L67.19 12.87Q67.40 12.61 67.50 12.19L67.50 12.19L67.50 12.19Q67.61 11.76 67.65 11.23L67.65 11.23L67.65 11.23Q67.69 10.70 67.69 10.15ZM73.27 8.07L73.27 8.07L73.27 8.07Q73.53 7.67 73.83 7.35L73.83 7.35L73.83 7.35Q73.95 7.21 74.09 7.08L74.09 7.08L74.09 7.08Q74.24 6.95 74.39 6.85L74.39 6.85L74.39 6.85Q74.55 6.75 74.71 6.69L74.71 6.69L74.71 6.69Q74.87 6.62 75.04 6.62L75.04 6.62L75.04 6.62Q75.39 6.62 75.58 6.83L75.58 6.83L75.58 6.83Q75.78 7.04 75.78 7.42L75.78 7.42L75.78 7.42Q75.78 7.65 75.75 7.86L75.75 7.86L75.75 7.86Q75.71 8.08 75.60 8.39L75.60 8.39L75.41 8.39L75.41 8.39Q75.37 8.18 75.22 8.04L75.22 8.04L75.22 8.04Q75.07 7.90 74.78 7.90L74.78 7.90L74.78 7.90Q74.57 7.90 74.36 7.97L74.36 7.97L74.36 7.97Q74.16 8.05 73.96 8.17L73.96 8.17L73.96 8.17Q73.77 8.29 73.59 8.42L73.59 8.42L73.59 8.42Q73.42 8.56 73.27 8.68L73.27 8.68L73.27 13.12L73.27 13.12Q73.27 13.21 73.25 13.33L73.25 13.33L73.25 13.33Q73.22 13.45 73.11 13.56L73.11 13.56L73.11 13.56Q73.01 13.67 72.80 13.75L72.80 13.75L72.80 13.75Q72.59 13.83 72.23 13.83L72.23 13.83L72.23 13.83Q71.87 13.83 71.66 13.74L71.66 13.74L71.66 13.74Q71.45 13.66 71.34 13.54L71.34 13.54L71.34 13.54Q71.23 13.43 71.20 13.30L71.20 13.30L71.20 13.30Q71.18 13.18 71.18 13.10L71.18 13.10L71.18 7.83L71.18 7.83Q71.18 7.63 71.08 7.48L71.08 7.48L71.08 7.48Q70.99 7.33 70.77 7.33L70.77 7.33L70.77 7.33Q70.66 7.33 70.57 7.38L70.57 7.38L70.57 7.38Q70.49 7.42 70.40 7.49L70.40 7.49L70.25 7.32L70.25 7.32Q70.41 7.19 70.60 7.06L70.60 7.06L70.60 7.06Q70.80 6.94 71.03 6.84L71.03 6.84L71.03 6.84Q71.25 6.75 71.51 6.69L71.51 6.69L71.51 6.69Q71.77 6.62 72.06 6.62L72.06 6.62L72.06 6.62Q72.35 6.62 72.56 6.70L72.56 6.70L72.56 6.70Q72.77 6.78 72.90 6.91L72.90 6.91L72.90 6.91Q73.04 7.03 73.11 7.19L73.11 7.19L73.11 7.19Q73.19 7.35 73.22 7.51L73.22 7.51L73.22 7.51Q73.26 7.67 73.27 7.82L73.27 7.82L73.27 7.82Q73.27 7.96 73.27 8.07ZM78.63 4.21L78.63 13.12L78.63 13.12Q78.63 13.21 78.60 13.33L78.60 13.33L78.60 13.33Q78.57 13.45 78.45 13.56L78.45 13.56L78.45 13.56Q78.34 13.67 78.12 13.75L78.12 13.75L78.12 13.75Q77.91 13.83 77.55 13.83L77.55 13.83L77.55 13.83Q77.18 13.83 76.98 13.74L76.98 13.74L76.98 13.74Q76.77 13.66 76.68 13.54L76.68 13.54L76.68 13.54Q76.58 13.43 76.55 13.30L76.55 13.30L76.55 13.30Q76.53 13.18 76.53 13.10L76.53 13.10L76.53 4.29L76.53 4.29Q76.53 4.09 76.44 3.94L76.44 3.94L76.44 3.94Q76.34 3.79 76.13 3.79L76.13 3.79L76.13 3.79Q76.01 3.79 75.92 3.83L75.92 3.83L75.92 3.83Q75.84 3.87 75.74 3.94L75.74 3.94L75.61 3.78L75.61 3.78Q75.76 3.65 75.95 3.52L75.95 3.52L75.95 3.52Q76.15 3.40 76.37 3.30L76.37 3.30L76.37 3.30Q76.60 3.21 76.86 3.14L76.86 3.14L76.86 3.14Q77.12 3.08 77.41 3.08L77.41 3.08L77.41 3.08Q77.85 3.08 78.10 3.20L78.10 3.20L78.10 3.20Q78.35 3.32 78.46 3.50L78.46 3.50L78.46 3.50Q78.58 3.67 78.60 3.87L78.60 3.87L78.60 3.87Q78.63 4.06 78.63 4.21L78.63 4.21ZM84.14 10.01L84.14 10.01L84.14 10.01Q84.14 9.93 84.14 9.70L84.14 9.70L84.14 9.70Q84.14 9.47 84.13 9.18L84.13 9.18L84.13 9.18Q84.12 8.88 84.08 8.54L84.08 8.54L84.08 8.54Q84.05 8.21 83.97 7.92L83.97 7.92L83.97 7.92Q83.81 7.71 83.61 7.54L83.61 7.54L83.61 7.54Q83.41 7.38 83.09 7.38L83.09 7.38L83.09 7.38Q82.56 7.38 82.31 8.07L82.31 8.07L82.31 8.07Q82.06 8.77 82.06 10.23L82.06 10.23L82.06 10.23Q82.06 10.88 82.12 11.41L82.12 11.41L82.12 11.41Q82.17 11.94 82.29 12.33L82.29 12.33L82.29 12.33Q82.41 12.71 82.60 12.92L82.60 12.92L82.60 12.92Q82.79 13.13 83.05 13.13L83.05 13.13L83.05 13.13Q84.14 13.13 84.14 10.01ZM84.06 7L84.06 7L84.06 7Q83.93 6.32 83.70 5.73L83.70 5.73L83.70 5.73Q83.47 5.13 83.14 4.70L83.14 4.70L83.14 4.70Q82.82 4.27 82.40 4.03L82.40 4.03L82.40 4.03Q81.99 3.78 81.51 3.78L81.51 3.78L81.51 3.78Q81.24 3.78 81.02 3.85L81.02 3.85L81.02 3.85Q80.79 3.92 80.63 4.01L80.63 4.01L80.63 4.01Q80.47 4.10 80.36 4.19L80.36 4.19L80.36 4.19Q80.25 4.27 80.21 4.31L80.21 4.31L80.03 4.07L80.03 4.07Q80.19 3.86 80.43 3.68L80.43 3.68L80.43 3.68Q80.66 3.49 80.94 3.36L80.94 3.36L80.94 3.36Q81.22 3.23 81.54 3.16L81.54 3.16L81.54 3.16Q81.85 3.08 82.15 3.08L82.15 3.08L82.15 3.08Q83.17 3.08 83.93 3.52L83.93 3.52L83.93 3.52Q84.70 3.96 85.21 4.77L85.21 4.77L85.21 4.77Q85.72 5.58 85.98 6.72L85.98 6.72L85.98 6.72Q86.24 7.86 86.24 9.26L86.24 9.26L86.24 9.26Q86.24 10.38 86.01 11.24L86.01 11.24L86.01 11.24Q85.78 12.09 85.36 12.67L85.36 12.67L85.36 12.67Q84.94 13.25 84.33 13.54L84.33 13.54L84.33 13.54Q83.73 13.83 82.97 13.83L82.97 13.83L82.97 13.83Q82.44 13.83 81.90 13.64L81.90 13.64L81.90 13.64Q81.35 13.45 80.91 13.03L80.91 13.03L80.91 13.03Q80.47 12.61 80.19 11.92L80.19 11.92L80.19 11.92Q79.91 11.23 79.91 10.23L79.91 10.23L79.91 10.23Q79.91 9.37 80.15 8.70L80.15 8.70L80.15 8.70Q80.40 8.03 80.81 7.57L80.81 7.57L80.81 7.57Q81.22 7.11 81.76 6.87L81.76 6.87L81.76 6.87Q82.30 6.62 82.90 6.62L82.90 6.62L82.90 6.62Q83.13 6.62 83.32 6.66L83.32 6.66L83.32 6.66Q83.50 6.70 83.64 6.75L83.64 6.75L83.64 6.75Q83.77 6.81 83.88 6.87L83.88 6.87L83.88 6.87Q83.98 6.94 84.06 7Z"></path></g><!----><g data-v-423bf9ae="" id="ba81e359-bd1b-43d4-b38f-1bcf7fcb8864" transform="matrix(3.1794257164001465,0,0,3.1794257164001465,103.56121063232422,-35.47277069091797)" stroke="none" fill="white"><path d="M35.238 17.482c.109.334.176.676.176 1.027 0 3.192-4.691 5.78-10.479 5.78-5.787 0-10.479-2.588-10.479-5.78 0-.352.066-.693.175-1.028C6.533 18.554.935 20.851.935 23.512c0 3.687 10.862 7.405 24.117 7.405 13.254 0 23.883-3.719 23.883-7.405.001-2.66-5.599-4.957-13.697-6.03z"></path><path d="M25.052 31.016C12.379 31.016.837 27.44.837 23.513c0-2.653 5.281-5.001 13.781-6.128l.153-.021-.048.147c-.114.352-.17.679-.17.998 0 3.134 4.657 5.683 10.381 5.683s10.381-2.549 10.381-5.683c0-.32-.057-.646-.17-.997l-.049-.147.154.021c8.5 1.126 13.781 3.474 13.781 6.127 0 1.849-2.566 3.736-7.039 5.178-4.648 1.498-10.666 2.325-16.94 2.325zM14.494 17.599c-8.183 1.104-13.461 3.42-13.461 5.914 0 3.449 10.272 7.308 24.02 7.308 13.614 0 23.786-3.858 23.786-7.308 0-2.494-5.279-4.811-13.461-5.913.09.315.135.614.135.91 0 3.241-4.745 5.878-10.577 5.878S14.36 21.751 14.36 18.51a3.227 3.227 0 0 1 .134-.911z"></path><path d="M24.935 25.79c-6.717 0-11.979-3.198-11.979-7.28 0-4.083 5.262-7.281 11.979-7.281s11.979 3.198 11.979 7.281c0 4.082-5.262 7.28-11.979 7.28zm0-11.561c-5.291 0-8.979 2.256-8.979 4.281 0 2.024 3.688 4.28 8.979 4.28 5.292 0 8.979-2.256 8.979-4.28 0-2.026-3.687-4.281-8.979-4.281z"></path><circle cx="8.957" cy="33.84" r="2.965"></circle><path d="M8.958 36.902c-1.689 0-3.063-1.374-3.063-3.063s1.375-3.063 3.063-3.063c1.688 0 3.063 1.374 3.063 3.063s-1.375 3.063-3.063 3.063zm0-5.929c-1.582 0-2.868 1.286-2.868 2.867s1.287 2.867 2.868 2.867 2.867-1.286 2.867-2.867-1.286-2.867-2.867-2.867z"></path><g><path d="M11.394 28.038l-1.951 4.739M10.47 27.658l1.849.762-1.952 4.739-1.849-.762z"></path></g><g><circle cx="25.204" cy="36.474" r="2.966"></circle><path d="M25.204 39.536c-1.688 0-3.063-1.374-3.063-3.063s1.374-3.063 3.063-3.063 3.064 1.374 3.064 3.063-1.375 3.063-3.064 3.063zm0-5.93c-1.581 0-2.867 1.286-2.867 2.867s1.286 2.867 2.867 2.867c1.582 0 2.869-1.286 2.869-2.867s-1.288-2.867-2.869-2.867z"></path><g><path d="M25.248 29.246l-.088 7.228M24.246 29.233l2 .024-.084 7.227-2-.023z"></path></g></g><g><circle cx="41.191" cy="33.561" r="2.965"></circle><path d="M41.191 36.623c-1.689 0-3.063-1.374-3.063-3.063s1.373-3.063 3.063-3.063c1.688 0 3.063 1.374 3.063 3.063s-1.375 3.063-3.063 3.063zm0-5.93c-1.582 0-2.867 1.286-2.867 2.867s1.285 2.867 2.867 2.867c1.58 0 2.867-1.286 2.867-2.867s-1.287-2.867-2.867-2.867z"></path><g><path d="M38.619 27.295l2.322 5.574M39.542 26.911l2.323 5.575-1.846.77-2.323-5.575z"></path></g></g></g><!----><g data-v-423bf9ae="" id="d86acf3d-a3ec-471c-9414-5ffad3e10100" fill="white" transform="matrix(1.7841793298721313,0,0,1.7841793298721313,45.558326721191406,191.42929077148438)"><path d="M0.52 12.39C0.52 12.63 0.53 12.68 0.73 12.68C1.05 12.68 1.95 12.64 2.37 12.64C2.79 12.64 3.74 12.68 4.06 12.68C4.23 12.68 4.24 12.61 4.24 12.40C4.24 12.24 4.21 12.18 4.05 12.18L3.04 12.18C2.94 12.18 2.91 10.12 2.91 8.46C2.91 8.30 2.91 8.30 3.08 8.30L3.35 8.30C3.56 8.30 3.56 8.32 3.63 8.40L6.66 12.00C6.76 12.11 6.83 12.18 6.62 12.18L6.16 12.18C5.98 12.18 5.91 12.19 5.91 12.39C5.91 12.63 5.91 12.68 6.10 12.68C6.43 12.68 7.13 12.64 7.55 12.64C7.97 12.64 8.65 12.68 8.97 12.68C9.14 12.68 9.14 12.61 9.14 12.40C9.14 12.24 9.14 12.18 8.97 12.18L8.75 12.18C8.57 12.18 8.47 12.10 8.34 11.96L4.58 7.62C4.44 7.45 4.41 7.50 4.54 7.36C4.98 6.83 7.52 3.77 7.59 3.77L8.26 3.77C8.48 3.77 8.51 3.75 8.51 3.56C8.51 3.32 8.51 3.26 8.32 3.26C8.12 3.26 7.67 3.30 7.15 3.30C6.62 3.30 6.15 3.26 5.92 3.26C5.74 3.26 5.64 3.28 5.64 3.51C5.64 3.75 5.75 3.77 5.92 3.77L6.48 3.77C6.65 3.77 6.65 3.84 6.54 3.99C6.01 4.66 3.65 7.92 3.36 7.92L3.05 7.92C2.91 7.92 2.91 7.88 2.91 7.69L2.91 5.94C2.91 5.21 2.98 3.77 3.08 3.77L3.85 3.77C4.07 3.77 4.12 3.75 4.12 3.56C4.12 3.32 4.10 3.26 3.91 3.26C3.58 3.26 2.81 3.30 2.39 3.30C1.81 3.30 1.15 3.26 0.92 3.26C0.74 3.26 0.64 3.28 0.64 3.51C0.64 3.75 0.76 3.77 0.92 3.77L1.57 3.77C1.62 3.77 1.65 4.86 1.65 5.78L1.65 9.84C1.65 11.00 1.64 12.18 1.55 12.18L0.81 12.18C0.59 12.18 0.52 12.19 0.52 12.39ZM16.27 10.12C16.27 11.73 17.29 12.78 18.96 12.78C20.34 12.78 21.21 11.90 21.21 11.82C21.21 11.68 21.17 11.66 21.07 11.66C21 11.66 20.34 12.08 19.38 12.08C17.96 12.08 17.26 10.93 17.26 9.77C17.26 8.68 17.95 7.43 19.11 7.43C19.96 7.43 19.99 8.04 20.22 8.68C20.26 8.82 20.37 8.86 20.50 8.86C20.64 8.86 20.82 8.76 20.94 8.67C21.07 8.57 21.10 8.48 21.10 8.36C21.10 7.60 20.12 6.97 19.19 6.97C17.82 6.97 16.27 8.02 16.27 10.12ZM29.54 10.44C29.54 11.80 30.72 12.73 32.06 12.73C33.61 12.73 34.65 11.80 34.65 10.44C34.65 8.75 33.35 8.19 32.89 7.91C32.83 7.87 32.82 7.87 32.82 7.85C32.82 7.84 32.83 7.83 32.89 7.78C33.36 7.43 34.34 6.86 34.34 5.49C34.34 4.20 33.32 3.35 32.09 3.35C30.74 3.35 29.67 4.37 29.67 5.67C29.67 6.82 30.60 7.57 31.09 7.91C31.21 7.99 31.29 8.04 31.29 8.05C31.29 8.06 31.25 8.06 31.15 8.12C30.65 8.37 29.54 8.93 29.54 10.44ZM30.37 10.30C30.37 9.27 30.91 8.72 31.22 8.50C31.39 8.37 31.61 8.23 31.65 8.22C31.68 8.22 31.91 8.32 32.02 8.39C32.84 8.83 33.66 9.30 33.66 10.46C33.66 11.38 33.07 12.25 32.12 12.25C31.07 12.25 30.37 11.47 30.37 10.30ZM30.56 5.50C30.56 4.55 31.12 3.74 32.06 3.74C32.96 3.74 33.63 4.38 33.63 5.60C33.63 6.31 33.05 7.20 32.63 7.57C32.52 7.67 32.48 7.70 32.47 7.70C32.45 7.70 32.38 7.66 32.26 7.60C32.07 7.52 31.81 7.35 31.51 7.13C30.94 6.68 30.56 6.17 30.56 5.50ZM42.88 7.73C42.88 7.78 42.91 7.78 43.01 7.78C43.06 7.78 43.67 7.76 43.82 7.76C43.96 7.76 43.99 7.73 44.00 7.91C44.04 8.48 44.10 8.92 44.10 11.93L44.10 13.92C44.10 14.83 44.10 16.11 44.06 16.11L43.30 16.11C43.13 16.11 43.12 16.20 43.12 16.34C43.12 16.49 43.13 16.58 43.30 16.58C43.72 16.58 44.35 16.55 44.70 16.55C45.11 16.55 45.95 16.58 46.21 16.58C46.40 16.58 46.41 16.46 46.41 16.34C46.41 16.20 46.41 16.11 46.21 16.11L45.23 16.11C45.19 16.11 45.18 15.68 45.16 15.22L45.12 12.71C45.12 12.57 45.12 12.53 45.15 12.53C45.19 12.53 45.74 12.77 46.34 12.77C48.20 12.77 49.31 11.31 49.31 9.88C49.31 8.39 48.51 7.20 46.87 7.20C46.27 7.20 45.67 7.49 45.33 7.73C45.23 7.80 45.11 7.92 45.11 7.76L45.11 7.48C45.11 7.27 45.04 7.24 44.91 7.24C44.86 7.24 43.95 7.29 43.01 7.32C42.95 7.32 42.88 7.71 42.88 7.73ZM45.12 11.91L45.12 8.32C45.12 8.30 45.14 8.16 45.56 7.95C45.77 7.85 46.05 7.77 46.44 7.77C47.45 7.77 48.22 8.62 48.22 9.98C48.22 11.09 47.57 12.42 46.30 12.42C45.86 12.42 45.12 12.15 45.12 11.91ZM57.13 10.07C57.13 12.11 58.38 12.82 59.64 12.82C60.19 12.82 60.86 12.57 61.33 12.28C61.45 12.21 61.49 12.22 61.49 12.29C61.49 12.35 61.47 12.77 61.47 12.80C61.47 12.92 61.49 12.96 61.59 12.96C61.66 12.96 63.31 12.74 63.31 12.74C63.43 12.73 63.43 12.57 63.43 12.38C63.43 12.28 63.38 12.28 63.29 12.29C63.15 12.31 62.83 12.36 62.79 12.36C62.55 12.36 62.50 12.24 62.48 11.63C62.47 11.13 62.45 10.47 62.45 10.02C62.45 5.68 62.54 3.74 62.54 3.26C62.54 3.07 62.52 3.04 62.47 3.04C62.24 3.04 61.40 3.19 60.48 3.29C60.37 3.30 60.38 3.33 60.35 3.51C60.33 3.70 60.34 3.77 60.41 3.77C60.51 3.77 61.26 3.64 61.35 3.64C61.43 3.64 61.50 6.51 61.50 7.41C61.50 7.52 61.49 7.60 61.46 7.60C61.42 7.60 60.82 7.25 60.02 7.25C58.38 7.25 57.13 8.46 57.13 10.07ZM58.24 9.97C58.24 8.74 58.98 7.62 60.19 7.62C60.90 7.62 61.50 8.16 61.50 8.30L61.50 11.80C61.50 12.00 60.70 12.22 60.33 12.22C58.84 12.22 58.24 11.26 58.24 9.97ZM71.04 7.71C71.04 7.76 71.06 7.76 71.13 7.76C71.18 7.76 71.89 7.73 71.97 7.73C72.06 7.73 72.09 9.20 72.09 10.33C72.09 11.24 72.07 12.21 71.97 12.21L71.36 12.21C71.19 12.21 71.19 12.29 71.19 12.43C71.19 12.59 71.20 12.67 71.37 12.67C71.79 12.67 72.27 12.64 72.62 12.64C73.02 12.64 73.88 12.67 74.14 12.67C74.33 12.67 74.33 12.56 74.33 12.43C74.33 12.29 74.31 12.21 74.14 12.21L73.22 12.21C73.12 12.21 73.09 11.47 73.09 10.68C73.09 9.46 73.21 7.87 73.85 7.87C74.09 7.87 74.37 8.32 74.68 8.32C74.94 8.32 75.25 7.85 75.25 7.69C75.25 7.49 74.86 7.04 74.41 7.04C73.96 7.04 73.39 7.49 73.07 8.26C73.00 8.40 73.01 8.46 73.01 8.23C73.01 7.98 73.02 7.64 73.02 7.42C73.02 7.29 73.02 7.29 72.86 7.29C72.76 7.29 71.86 7.32 71.34 7.34C71.15 7.34 71.12 7.34 71.09 7.45C71.08 7.52 71.04 7.66 71.04 7.71ZM92.25 3.51C92.25 3.75 92.36 3.77 92.53 3.77L93.03 3.77C93.11 3.77 95.26 10.99 95.28 11.07C95.63 12.14 95.75 12.99 96.05 12.99C96.28 12.99 96.38 12.67 96.66 12.26C96.81 12.05 96.91 12.01 97.05 11.66L99.04 6.45C99.11 6.29 99.13 6.20 99.16 6.20C99.19 6.20 99.22 6.29 99.26 6.45C99.86 8.51 100.53 11.03 100.55 11.07C100.90 12.14 101.01 12.99 101.32 12.99C101.54 12.99 101.64 12.67 101.92 12.26C102.07 12.05 102.17 12.01 102.31 11.66L105.41 4.06C105.50 3.81 105.50 3.77 105.87 3.77C106.11 3.77 106.16 3.71 106.16 3.53C106.16 3.32 106.12 3.26 105.92 3.26C105.78 3.26 105.48 3.30 104.97 3.30C104.23 3.30 103.73 3.26 103.53 3.26C103.35 3.26 103.25 3.28 103.25 3.51C103.25 3.75 103.36 3.77 103.53 3.77L104.44 3.77C104.51 3.77 104.52 3.81 104.52 3.95C104.52 4.63 102.93 8.72 102.21 10.63C102.07 10.99 102.00 11.17 101.96 11.17C101.91 11.17 101.85 10.99 101.72 10.60C101.64 10.30 100.72 7.18 100.18 5.22C100.14 5.05 99.93 4.17 99.93 3.85C99.93 3.81 99.93 3.79 99.95 3.77L100.83 3.77C101.01 3.77 101.11 3.75 101.11 3.56C101.11 3.32 101.07 3.26 100.87 3.26C100.55 3.26 99.61 3.30 99.19 3.30C98.77 3.30 97.86 3.26 97.64 3.26C97.45 3.26 97.36 3.28 97.36 3.51C97.36 3.75 97.47 3.77 97.64 3.77L98.43 3.77C98.48 3.77 98.66 4.27 98.81 4.83C98.87 5.05 98.91 5.15 98.91 5.25C98.91 5.31 98.91 5.38 98.87 5.49L96.87 10.60C96.77 10.82 96.74 10.95 96.70 10.95C96.66 10.95 96.63 10.84 96.54 10.60C96.46 10.32 95.45 7.27 94.85 5.22C94.81 5.08 94.49 3.96 94.47 3.85C94.49 3.77 94.53 3.77 94.57 3.77L95.27 3.77C95.49 3.77 95.56 3.75 95.56 3.56C95.56 3.32 95.52 3.26 95.33 3.26C95.00 3.26 94.29 3.30 93.87 3.30C93.45 3.30 92.75 3.26 92.53 3.26C92.34 3.26 92.25 3.28 92.25 3.51ZM112.38 10.04C112.38 11.58 113.54 12.85 115.07 12.85C116.83 12.85 117.87 11.58 117.87 9.84C117.87 8.29 116.84 7.01 115.29 7.01C113.54 7.01 112.38 8.37 112.38 10.04ZM113.46 10.23C113.46 8.69 113.85 7.46 115.12 7.46C116.26 7.46 116.77 8.74 116.77 9.74C116.77 10.92 116.54 12.40 115.07 12.40C114.02 12.40 113.46 11.27 113.46 10.23ZM125.54 7.71C125.54 7.76 125.57 7.76 125.64 7.76C125.68 7.76 126.39 7.73 126.48 7.73C126.56 7.73 126.59 9.20 126.59 10.33C126.59 11.24 126.57 12.21 126.48 12.21L125.86 12.21C125.69 12.21 125.69 12.29 125.69 12.43C125.69 12.59 125.71 12.67 125.87 12.67C126.29 12.67 126.77 12.64 127.12 12.64C127.53 12.64 128.38 12.67 128.65 12.67C128.83 12.67 128.83 12.56 128.83 12.43C128.83 12.29 128.81 12.21 128.65 12.21L127.72 12.21C127.62 12.21 127.60 11.47 127.60 10.68C127.60 9.46 127.71 7.87 128.35 7.87C128.59 7.87 128.87 8.32 129.18 8.32C129.44 8.32 129.75 7.85 129.75 7.69C129.75 7.49 129.36 7.04 128.91 7.04C128.46 7.04 127.89 7.49 127.57 8.26C127.50 8.40 127.51 8.46 127.51 8.23C127.51 7.98 127.53 7.64 127.53 7.42C127.53 7.29 127.53 7.29 127.36 7.29C127.26 7.29 126.36 7.32 125.85 7.34C125.65 7.34 125.62 7.34 125.59 7.45C125.58 7.52 125.54 7.66 125.54 7.71ZM137.07 3.58C137.07 3.65 137.09 3.65 137.14 3.65C137.20 3.65 137.79 3.60 137.87 3.60C137.94 3.60 138.00 3.57 138.03 3.82C138.14 5.07 138.18 10.37 138.18 11.06C138.18 11.44 138.18 12.21 138.11 12.21L137.40 12.21C137.24 12.21 137.23 12.29 137.23 12.43C137.23 12.59 137.24 12.67 137.41 12.67C137.83 12.67 138.40 12.64 138.75 12.64C139.16 12.64 139.65 12.67 139.92 12.67C140.08 12.67 140.08 12.60 140.08 12.43C140.08 12.28 140.08 12.21 139.92 12.21L139.31 12.21C139.26 12.21 139.24 12.05 139.24 11.70C139.24 8.89 139.17 7.62 139.16 3.32C139.16 3.16 139.16 3.07 139.02 3.07C138.94 3.07 137.84 3.15 137.28 3.19C137.17 3.21 137.14 3.19 137.12 3.32C137.09 3.42 137.07 3.57 137.07 3.58ZM147.83 10.07C147.83 12.11 149.07 12.82 150.33 12.82C150.88 12.82 151.55 12.57 152.03 12.28C152.14 12.21 152.18 12.22 152.18 12.29C152.18 12.35 152.17 12.77 152.17 12.80C152.17 12.92 152.18 12.96 152.28 12.96C152.35 12.96 154.00 12.74 154.00 12.74C154.13 12.73 154.13 12.57 154.13 12.38C154.13 12.28 154.07 12.28 153.99 12.29C153.85 12.31 153.52 12.36 153.48 12.36C153.24 12.36 153.19 12.24 153.17 11.63C153.16 11.13 153.15 10.47 153.15 10.02C153.15 5.68 153.23 3.74 153.23 3.26C153.23 3.07 153.22 3.04 153.16 3.04C152.94 3.04 152.10 3.19 151.17 3.29C151.06 3.30 151.07 3.33 151.05 3.51C151.02 3.70 151.03 3.77 151.10 3.77C151.20 3.77 151.96 3.64 152.04 3.64C152.12 3.64 152.19 6.51 152.19 7.41C152.19 7.52 152.18 7.60 152.15 7.60C152.11 7.60 151.51 7.25 150.71 7.25C149.07 7.25 147.83 8.46 147.83 10.07ZM148.93 9.97C148.93 8.74 149.67 7.62 150.88 7.62C151.59 7.62 152.19 8.16 152.19 8.30L152.19 11.80C152.19 12.00 151.40 12.22 151.02 12.22C149.53 12.22 148.93 11.26 148.93 9.97Z"></path></g></svg>