<svg data-v-fde0c5aa="" xmlns="http://www.w3.org/2000/svg" viewBox="0 0 300 300" class="icon"><!----><defs data-v-fde0c5aa=""><!----></defs><rect data-v-fde0c5aa="" fill="#48463E" x="0" y="0" width="300px" height="300px" class="logo-background-square"></rect><!----><defs data-v-fde0c5aa=""><!----></defs><g data-v-fde0c5aa="" id="680ec52d-0f09-4c6d-9f4b-036aaa366778" fill="#CB594D" stroke="none" transform="matrix(4.564883708953857,0,0,4.564883708953857,36.17919209092584,34.13183494677397)"><path d="M35.238 17.482c.109.334.176.676.176 1.027 0 3.192-4.691 5.78-10.479 5.78-5.787 0-10.479-2.588-10.479-5.78 0-.352.066-.693.175-1.028C6.533 18.554.935 20.851.935 23.512c0 3.687 10.862 7.405 24.117 7.405 13.254 0 23.883-3.719 23.883-7.405.001-2.66-5.599-4.957-13.697-6.03z"></path><path d="M25.052 31.016C12.379 31.016.837 27.44.837 23.513c0-2.653 5.281-5.001 13.781-6.128l.153-.021-.048.147c-.114.352-.17.679-.17.998 0 3.134 4.657 5.683 10.381 5.683s10.381-2.549 10.381-5.683c0-.32-.057-.646-.17-.997l-.049-.147.154.021c8.5 1.126 13.781 3.474 13.781 6.127 0 1.849-2.566 3.736-7.039 5.178-4.648 1.498-10.666 2.325-16.94 2.325zM14.494 17.599c-8.183 1.104-13.461 3.42-13.461 5.914 0 3.449 10.272 7.308 24.02 7.308 13.614 0 23.786-3.858 23.786-7.308 0-2.494-5.279-4.811-13.461-5.913.09.315.135.614.135.91 0 3.241-4.745 5.878-10.577 5.878S14.36 21.751 14.36 18.51a3.227 3.227 0 0 1 .134-.911z"></path><path d="M24.935 25.79c-6.717 0-11.979-3.198-11.979-7.28 0-4.083 5.262-7.281 11.979-7.281s11.979 3.198 11.979 7.281c0 4.082-5.262 7.28-11.979 7.28zm0-11.561c-5.291 0-8.979 2.256-8.979 4.281 0 2.024 3.688 4.28 8.979 4.28 5.292 0 8.979-2.256 8.979-4.28 0-2.026-3.687-4.281-8.979-4.281z"></path><circle cx="8.957" cy="33.84" r="2.965"></circle><path d="M8.958 36.902c-1.689 0-3.063-1.374-3.063-3.063s1.375-3.063 3.063-3.063c1.688 0 3.063 1.374 3.063 3.063s-1.375 3.063-3.063 3.063zm0-5.929c-1.582 0-2.868 1.286-2.868 2.867s1.287 2.867 2.868 2.867 2.867-1.286 2.867-2.867-1.286-2.867-2.867-2.867z"></path><g><path d="M11.394 28.038l-1.951 4.739M10.47 27.658l1.849.762-1.952 4.739-1.849-.762z"></path></g><g><circle cx="25.204" cy="36.474" r="2.966"></circle><path d="M25.204 39.536c-1.688 0-3.063-1.374-3.063-3.063s1.374-3.063 3.063-3.063 3.064 1.374 3.064 3.063-1.375 3.063-3.064 3.063zm0-5.93c-1.581 0-2.867 1.286-2.867 2.867s1.286 2.867 2.867 2.867c1.582 0 2.869-1.286 2.869-2.867s-1.288-2.867-2.869-2.867z"></path><g><path d="M25.248 29.246l-.088 7.228M24.246 29.233l2 .024-.084 7.227-2-.023z"></path></g></g><g><circle cx="41.191" cy="33.561" r="2.965"></circle><path d="M41.191 36.623c-1.689 0-3.063-1.374-3.063-3.063s1.373-3.063 3.063-3.063c1.688 0 3.063 1.374 3.063 3.063s-1.375 3.063-3.063 3.063zm0-5.93c-1.582 0-2.867 1.286-2.867 2.867s1.285 2.867 2.867 2.867c1.58 0 2.867-1.286 2.867-2.867s-1.287-2.867-2.867-2.867z"></path><g><path d="M38.619 27.295l2.322 5.574M39.542 26.911l2.323 5.575-1.846.77-2.323-5.575z"></path></g></g></g><!----></svg>